<?xml version="1.0" encoding="UTF-8"?>
<svg width="173px" height="43px" viewBox="0 0 173 43" version="1.1" xmlns="http://www.w3.org/2000/svg" xmlns:xlink="http://www.w3.org/1999/xlink">
    <title>登录_LOGO</title>
    <defs>
        <linearGradient x1="50%" y1="0%" x2="50%" y2="100%" id="linearGradient-1">
            <stop stop-color="#E5EDFF" offset="0%"></stop>
            <stop stop-color="#8D93A2" offset="100%"></stop>
        </linearGradient>
        <path d="M52.9108652,25.4279323 C53.6887281,25.4279323 54.3495748,25.617425 54.8934054,25.9964103 C55.437236,26.3753957 55.7091512,26.9812623 55.7091512,27.8140104 L55.7091512,27.8140104 L54.7646034,27.8140104 L54.7345777,27.6212603 C54.6765841,27.3129925 54.5788367,27.0696356 54.4413357,26.8911896 C54.1349049,26.5003079 53.6146459,26.304867 52.8805588,26.304867 C52.2879013,26.304867 51.8619288,26.4306289 51.6026411,26.6821528 C51.3433535,26.9336767 51.2137097,27.2259883 51.2137097,27.5590875 C51.2137097,27.9261764 51.3652414,28.1946952 51.6683049,28.3646437 C51.8669798,28.4734108 52.316524,28.6093697 53.0169374,28.7725203 L53.0169374,28.7725203 L54.0574553,29.0121478 L54.2654764,29.0642769 C54.6674994,29.1737377 54.9854068,29.3144135 55.2191986,29.4863043 C55.6906307,29.8363984 55.9263467,30.3445447 55.9263467,31.0107431 C55.9263467,31.8400921 55.6274925,32.4332127 55.029784,32.7901047 C54.4320754,33.1469967 53.737555,33.3254427 52.9462226,33.3254427 C52.0235626,33.3254427 51.3012614,33.0875147 50.7793187,32.6116587 C50.2573761,32.1392016 50.0014558,31.4984955 50.0115579,30.6895403 L50.0115579,30.6895403 L50.9561057,30.6895403 L50.9742054,30.8953197 C51.0148944,31.2271915 51.1081987,31.503594 51.2541182,31.7245271 C51.587488,32.2207769 52.1750944,32.4689019 53.0169374,32.4689019 C53.394083,32.4689019 53.737555,32.4145183 54.0473532,32.3057512 C54.6467454,32.095015 54.9464415,31.7177292 54.9464415,31.1738937 C54.9464415,30.7660171 54.820165,30.4754051 54.5676122,30.3020575 C54.3116919,30.1321089 53.9109746,29.9842537 53.3654604,29.8584917 L53.3654604,29.8584917 L52.3602998,29.6290612 L52.123058,29.5722612 C51.590487,29.4380549 51.2048703,29.2921381 50.9662078,29.1345108 C50.4947758,28.8218054 50.2590597,28.3544468 50.2590597,27.732435 C50.2590597,27.0594387 50.4897247,26.5071058 50.9510547,26.0754364 C51.4123846,25.643767 52.0656548,25.4279323 52.9108652,25.4279323 Z M60.4015841,25.412637 C61.7114918,25.412637 62.6812949,25.8375084 63.3109934,26.6872513 C63.8026297,27.3500507 64.0484479,28.1980941 64.0484479,29.2313815 C64.0484479,30.3496431 63.7672723,31.2792618 63.2049212,32.0202376 C62.5449163,32.8903743 61.6037358,33.3254427 60.3813798,33.3254427 C59.2398407,33.3254427 58.3424361,32.9447579 57.689166,32.1833883 C57.1066106,31.4492104 56.8153329,30.5212912 56.8153329,29.3996306 C56.8153329,28.3867371 57.0645185,27.5199993 57.5628895,26.7994174 C58.2026902,25.8748971 59.1489217,25.412637 60.4015841,25.412637 Z M4.01656585,25.4228339 C4.71361184,25.4228339 5.31637142,25.5587927 5.82484459,25.8307105 C6.56229905,26.2215922 7.01352689,26.906485 7.17852811,27.8853888 L7.17852811,27.8853888 L6.1834697,27.8853888 L6.13825962,27.7084849 C6.00489506,27.2514281 5.76909588,26.9118667 5.43086207,26.6898005 C5.05034904,26.4399761 4.57049854,26.3150639 3.99131056,26.3150639 C3.30436668,26.3150639 2.72602055,26.5750852 2.25627216,27.0951279 C1.78652377,27.6151705 1.55164958,28.390136 1.55164958,29.4200244 C1.55164958,30.3105549 1.74527347,31.0353856 2.13252124,31.5945164 C2.51976902,32.1536473 3.15115126,32.4332127 4.02666797,32.4332127 C4.69677498,32.4332127 5.25154951,32.2369221 5.69099155,31.8443408 C6.13043359,31.4517596 6.35520567,30.8170017 6.36530779,29.940067 L6.36530779,29.940067 L4.04182114,29.940067 L4.04182114,29.0988216 L7.2997535,29.0988216 L7.2997535,33.106209 L6.65321809,33.106209 L6.41076731,32.1426006 L6.26737911,32.2972191 C5.98534453,32.5923053 5.73176081,32.8024866 5.50662794,32.927763 C5.06550221,33.1792869 4.50483478,33.3050489 3.82462565,33.3050489 C2.94574157,33.3050489 2.18976657,33.0178358 1.55670064,32.4434096 C0.866389388,31.7228276 0.521233763,30.7337269 0.521233763,29.4761074 C0.521233763,28.2218869 0.857970958,27.2242888 1.53144535,26.483313 C2.17124602,25.7763269 2.99961952,25.4228339 4.01656585,25.4228339 Z M41.905462,25.6165753 L41.905462,33.106209 L40.8901994,33.106209 L40.8901994,25.6165753 L41.905462,25.6165753 Z M39.2688098,25.6165753 L39.2688098,26.5342976 L34.839032,26.5342976 L34.839032,28.8082095 L38.9354399,28.8082095 L38.9354399,29.6749473 L34.839032,29.6749473 L34.839032,32.213979 L39.3445756,32.213979 L39.3445756,33.106209 L33.8591267,33.106209 L33.8591267,25.6165753 L39.2688098,25.6165753 Z M24.4894143,25.6165753 L25.8885573,31.7092317 L27.5655085,25.6165753 L28.6565371,25.6165753 L30.3334883,31.7092317 L31.7326313,25.6165753 L32.833762,25.6165753 L30.8840536,33.106209 L29.8283825,33.106209 L28.1160739,26.896288 L26.3936631,33.106209 L25.337992,33.106209 L23.3983857,25.6165753 L24.4894143,25.6165753 Z M17.7159456,25.6165753 L21.4638306,31.6837394 L21.4638306,25.6165753 L22.4184805,25.6165753 L22.4184805,33.106209 L21.2920946,33.106209 L17.488648,27.0441433 L17.488648,33.106209 L16.528947,33.106209 L16.528947,25.6165753 L17.7159456,25.6165753 Z M12.9224916,25.6165753 L15.6147055,33.106209 L14.5135749,33.106209 L13.7609672,30.8628878 L10.8263026,30.8628878 L10.0231844,33.106209 L8.99276853,33.106209 L11.7860036,25.6165753 L12.9224916,25.6165753 Z M107.144074,25.6165753 L107.144074,26.5342976 L102.714296,26.5342976 L102.714296,28.8082095 L106.810704,28.8082095 L106.810704,29.6749473 L102.714296,29.6749473 L102.714296,32.213979 L107.21984,32.213979 L107.21984,33.106209 L101.734391,33.106209 L101.734391,25.6165753 L107.144074,25.6165753 Z M97.7238511,25.6165753 L97.96022,25.6216737 C98.420794,25.6420675 98.8083854,25.7236429 99.1229942,25.8663997 C99.8200401,26.185903 100.168563,26.7756246 100.168563,27.6355644 C100.168563,28.0842286 100.076802,28.4513175 99.8932805,28.7368311 C99.7097587,29.0223447 99.4529966,29.2517753 99.1229942,29.4251229 C99.4125881,29.5440869 99.6306255,29.7004396 99.7771062,29.8941809 C99.9235868,30.0879223 100.005246,30.4023272 100.022082,30.8373955 L100.022082,30.8373955 L100.05744,31.8417916 L100.065117,32.0043304 C100.077509,32.2093564 100.098522,32.3676125 100.128155,32.4790988 C100.188767,32.7170268 100.296523,32.8699805 100.451422,32.9379599 L100.451422,32.9379599 L100.451422,33.106209 L99.2189643,33.106209 L99.1875354,33.0353971 C99.1680795,32.9840349 99.1516168,32.9243641 99.1381473,32.8563846 C99.1179431,32.7544155 99.1011062,32.5572751 99.0876367,32.2649636 L99.0876367,32.2649636 L99.0270241,31.0158415 L99.0133675,30.8586706 C98.961485,30.4554938 98.7858828,30.1798834 98.4865609,30.0318393 C98.2946207,29.940067 97.9932409,29.8941809 97.5824215,29.8941809 L97.5824215,29.8941809 L95.2942922,29.8941809 L95.2942922,33.106209 L94.2891317,33.106209 L94.2891317,25.6165753 L97.7238511,25.6165753 Z M90.561451,25.6165753 L93.2536648,33.106209 L92.1525342,33.106209 L91.3999266,30.8628878 L88.4652619,30.8628878 L87.6621437,33.106209 L86.6317279,33.106209 L89.4249629,25.6165753 L90.561451,25.6165753 Z M78.3732482,25.6165753 L79.7723912,31.7092317 L81.4493425,25.6165753 L82.540371,25.6165753 L84.2173222,31.7092317 L85.6164652,25.6165753 L86.7175959,25.6165753 L84.7678875,33.106209 L83.7122164,33.106209 L81.9999078,26.896288 L80.277497,33.106209 L79.2218259,33.106209 L77.2822197,25.6165753 L78.3732482,25.6165753 Z M76.964003,25.6165753 L76.964003,26.5088053 L74.4637293,26.5088053 L74.4637293,33.106209 L73.4434156,33.106209 L73.4434156,26.5088053 L70.943142,26.5088053 L70.943142,25.6165753 L76.964003,25.6165753 Z M70.4885467,25.6165753 L70.4885467,26.5342976 L66.3466792,26.5342976 L66.3466792,28.8082095 L69.988492,28.8082095 L69.988492,29.7004396 L66.3466792,29.7004396 L66.3466792,33.106209 L65.3415187,33.106209 L65.3415187,25.6165753 L70.4885467,25.6165753 Z M60.4621968,26.3150639 C59.694436,26.3150639 59.0681048,26.5810334 58.5832032,27.1129725 C58.0983016,27.6449115 57.8558509,28.4292242 57.8558509,29.4659105 C57.8558509,30.2952596 58.0637861,30.994598 58.4796565,31.5639257 C58.895527,32.1332534 59.5698432,32.4179173 60.5026052,32.4179173 C61.388224,32.4179173 62.0288666,32.0975642 62.4245328,31.4568581 C62.820199,30.816152 63.0180321,30.0794249 63.0180321,29.2466769 C63.0180321,28.3663432 62.7898926,27.6576577 62.3336137,27.1206202 C61.8773348,26.5835827 61.2535292,26.3150639 60.4621968,26.3150639 Z M89.950273,26.728039 L88.7531722,30.0369377 L91.0766589,30.0369377 L89.950273,26.728039 Z M12.3113136,26.728039 L11.1142129,30.0369377 L13.4376995,30.0369377 L12.3113136,26.728039 Z M97.7491064,26.4884115 L95.2942922,26.4884115 L95.2942922,29.047837 L97.6177789,29.047837 C98.089211,29.047837 98.4621474,28.9526658 98.7365882,28.7623234 C99.011029,28.571981 99.1482494,28.2286849 99.1482494,27.732435 C99.1482494,27.1987965 98.9563092,26.8351066 98.5724288,26.6413652 C98.3670192,26.539396 98.0925783,26.4884115 97.7491064,26.4884115 L97.7491064,26.4884115 Z M94.2439506,0.109911427 L91.7939345,6.8694642 L92.6106066,6.8694642 L92.6106066,21.7075069 L88.8539153,21.7075069 L88.8539153,10.4415856 L86.5127888,10.4415856 L90.2694801,0.109911427 L94.2439506,0.109911427 Z M105.731804,0.109911427 L105.731804,3.18743139 L112.428514,3.18743139 L110.79517,6.26495135 L105.731804,6.26495135 L105.731804,12.5299027 L113.081852,12.5299027 L111.448508,15.6074227 L105.731804,15.6074227 L105.731804,21.7075069 L102.192892,21.7075069 L102.192892,15.6074227 L93.318389,15.6074227 L94.951733,12.5299027 L102.247336,12.5299027 L102.247336,6.26495135 L98.2728659,6.26495135 L97.2384146,10.6614084 L93.590613,10.6614084 L96.2039634,0.714424277 L99.8517651,0.714424277 L99.1984275,3.18743139 L102.192892,3.18743139 L102.192892,0.109911427 L105.731804,0.109911427 Z M19.8723524,0.109911427 L19.6001284,1.48380427 L26.7868421,1.48380427 L26.0246149,4.67123566 L25.48,4.671 L25.4801669,10.8262756 L22.6490372,15.4425555 L26.3512837,21.7075069 L22.5401476,21.7075069 L20.7434692,18.5200755 L18.6745668,21.6525512 L15.0267651,21.6525512 L19.2734596,15.552467 L15.0812099,8.84786989 L18.8379012,8.84786989 L21.070138,12.6947698 L22.6490372,9.89202845 L22.649,4.671 L18.9467908,4.67123566 L18.3478979,8.13344562 L14.9723203,8.13344562 L16.5512195,0.109911427 L19.8723524,0.109911427 Z M12.1411906,0.109911427 C12.5223042,0.109911427 12.848973,0.219822855 13.0667522,0.494601423 C13.3389763,0.769379991 13.4478659,1.09911427 13.4478659,1.42884855 L13.4478659,4.61627994 L15.2445443,4.61627994 L15.2445443,4.67123566 L14.5367619,7.19919848 L13.393,7.199 L13.3934211,17.3660055 L15.4078787,17.3660055 L14.7545411,20.1687469 L13.3934211,20.1687469 L13.3934211,21.7075069 L10.4534018,21.7075069 L10.4534018,20.1687469 L0.054444801,20.1687469 L0.653337612,17.3660055 L1.90556804,17.3660055 L1.905,7.199 L0,7.19919848 L0.707782413,4.67123566 L10.4534018,4.67123566 L10.4534018,2.96760854 C10.4534018,2.91265282 10.398957,2.85769711 10.3445122,2.80274139 C10.2900674,2.74778568 10.2356226,2.69282997 10.126733,2.69282997 L1.19778562,2.69282997 L2.28668164,0.109911427 L12.1411906,0.109911427 Z M63.6459724,0.109911427 L63.3193036,1.31893713 L70.2882381,1.31893713 L69.1993421,4.56132423 L62.4481868,4.56132423 L61.1415116,9.94698417 L63.210414,9.94698417 L63.210414,6.0451285 L66.4771021,6.0451285 L66.4771021,9.94698417 L70.1249037,9.94698417 L69.0904525,12.9695484 L66.4771021,12.9695484 L66.4771021,15.2227327 L70.0704589,15.2227327 L69.0360077,18.1353855 L66.4771021,18.1353855 L66.4771021,21.6525512 L63.210414,21.6525512 L63.210414,18.1353855 L57.5481547,18.1353855 L58.6370507,15.2227327 L63.210414,15.2227327 L63.210414,12.9695484 L57.6025995,12.9695484 L57.7659339,11.1010542 L59.3448331,4.56132423 L57.6025995,4.56132423 L58.6370507,1.31893713 L60.3248395,1.31893713 L60.6515083,0.109911427 L63.6459724,0.109911427 Z M79.1627407,7.03433134 L77.4749519,11.6506113 L79.5438543,11.6506113 L83.8449936,21.6525512 L79.8705231,21.6525512 L76.6582799,14.1236184 L73.9904846,21.6525512 L70.2882381,21.6525512 L75.4604942,7.03433134 L79.1627407,7.03433134 Z M43.77362,0 L42.0858312,4.28654566 L53.1381258,4.28654566 C53.9547978,4.4514128 54.444801,4.89105851 54.444801,5.60548279 L54.444801,5.60548279 L52.9203466,19.0696326 C52.811457,19.7840569 52.7025674,20.333614 52.2125642,20.8282155 C51.722561,21.3228169 51.1236682,21.5426397 50.4703306,21.5426397 L50.4703306,21.5426397 L43.229172,21.5426397 L45.0258505,18.1903412 L48.5103177,18.1903412 C48.7825417,18.1903412 48.9458761,18.0804298 49.1092105,17.9155626 C49.2725449,17.7506955 49.2725449,17.5308726 49.3269897,17.3110498 L49.3269897,17.3110498 L50.5792202,7.47397705 L41.05138,7.47397705 L35.5524551,21.487684 L31.4146502,21.487684 L36.9135751,7.47397705 L29.7268614,7.47397705 L31.0879814,4.28654566 L38.1658055,4.28654566 L39.8535944,0 L43.77362,0 Z M10.453,7.199 L5.008,7.199 L5.00892169,17.3660055 L10.4534018,17.3660055 L10.4534018,15.3326441 L5.93448331,15.3326441 L6.47893132,12.859637 L10.4534018,12.859637 L10.4534018,11.4307884 L5.93448331,11.4307884 L6.47893132,8.95778132 L10.4534018,8.95778132 L10.453,7.199 Z M45.6791881,9.6722056 L47.5847561,16.4317584 L43.77362,16.4317584 L41.868052,9.6722056 L45.6791881,9.6722056 Z M82.647208,1.37389284 C82.8649872,1.37389284 83.0283216,1.42884855 83.2461008,1.53875998 C83.46388,1.64867141 83.6272144,1.75858284 83.7905488,1.92344998 C83.9538832,2.08831712 84.0627728,2.30813997 84.1716624,2.52796283 C84.2261072,2.80274139 84.2261072,3.07751996 84.1716624,3.35229853 L83.191656,9.45238274 L79.5982991,9.45238274 L80.4694159,4.89105851 L74.8616014,4.89105851 L75.4604942,1.37389284 L82.647208,1.37389284 Z M74.970491,0.109911427 L73.064923,9.45238274 L69.4715661,9.45238274 L71.431579,0.109911427 L74.970491,0.109911427 Z M35.2802311,0.219822855 L36.6413511,3.68203281 L32.3402118,3.68203281 L30.9790918,0.219822855 L35.2802311,0.219822855 Z" id="path-2"></path>
    </defs>
    <g id="页面-1" stroke="none" stroke-width="1" fill="none" fill-rule="evenodd">
        <g id="切图" transform="translate(-1451.000000, -573.000000)">
            <g id="编组" transform="translate(1510.000000, 578.000000)">
                <g transform="translate(0.603415, 25.027881)"></g>
                <g id="形状结合" fill-rule="nonzero">
                    <use fill="url(#linearGradient-1)" xlink:href="#path-2"></use>
                    <use fill="#FFFFFF" xlink:href="#path-2"></use>
                </g>
            </g>
            <g id="Logo" transform="translate(1451.000000, 573.000000)" fill-rule="nonzero">
                <path d="M35.1255289,4.48311307 C31.4640339,1.70484581 26.8716502,0 21.9689704,0 C17.0662906,0 12.5359661,1.64170338 8.87447109,4.41997063 L22.0310296,27.5932452 L35.1255289,4.48311307 Z" id="路径" fill="#F05C32"></path>
                <path d="M17.6248237,19.8898678 L30.719323,42.9368576 C38.538787,39.5271659 44,31.5712188 44,22.4155653 C44,21.5315712 43.9379408,20.7107195 43.8758815,19.8898678 L17.6248237,19.8898678 Z" id="路径" fill="#5251E5"></path>
                <path d="M26.3751763,19.8898678 L0.124118477,19.8898678 C0.0620592384,20.7107195 0,21.5947137 0,22.4155653 C0,31.6343612 5.46121298,39.5271659 13.280677,43 L26.3751763,19.8898678 Z" id="路径" fill="#89BA3F"></path>
                <polygon id="路径" fill="#FFFFFF" points="17.6248237 19.8898678 26.3751763 19.8898678 21.9689704 27.5932452"></polygon>
            </g>
        </g>
    </g>
</svg>