<?xml version="1.0" encoding="UTF-8"?>
<svg width="20px" height="20px" viewBox="0 0 20 20" version="1.1" xmlns="http://www.w3.org/2000/svg" xmlns:xlink="http://www.w3.org/1999/xlink">
    <title>登录_post_iphone_number_icon</title>
    <g id="页面-1" stroke="none" stroke-width="1" fill="none" fill-rule="evenodd">
        <g id="切图" transform="translate(-1450.000000, -656.000000)" fill="#AEB4BF">
            <g id="usre_iphone_number_icon备份-2" transform="translate(1450.881021, 656.819444)">
                <path d="M0,16.3669011 C0.23147049,15.1846771 0.868138688,14.8622734 2.31511187,14.3248569 C3.76208504,13.7875243 7.23486589,12.6590168 7.23486589,11.4230763 C7.23486589,10.7781639 7.0612291,10.6169515 6.59819769,10.4020437 C6.13514366,10.1871358 5.26700497,9.38101104 5.20905822,7.71517094 C4.51455631,7.71517094 3.8200318,5.45821885 5.03544405,5.45821885 C5.03544405,4.54468212 4.80395095,3.89976969 4.86180727,3.04003339 C5.03544405,2.12651766 4.91975402,1.32039287 6.94544864,0.621784968 C7.64006359,-0.506659594 9.95517546,0.245664768 10.5340099,0.245664768 C11.1705877,0.245664768 12.3282341,0.353160669 11.6915659,0.783081296 C12.6755076,0.944293659 13.0806149,1.48160523 13.3700095,2.18021313 C13.7752073,3.20124576 13.48579,4.06098206 13.3700095,5.45821885 C14.5855122,5.45821885 13.8908973,7.71517094 13.0806149,7.71517094 C13.0806149,9.48852793 12.2124536,10.0796399 11.8652027,10.4020437 C11.460005,10.7244474 11.2285345,10.9931557 11.2285345,11.4230763 C11.2285345,12.8740086 15.1064,13.7875243 16.3219027,14.3248569 C17.5373149,14.8622734 18.0582026,15.2383936 18.4634003,16.3669011 L18.4634003,17.1729419 L0,17.1729419 L0,16.3669011 Z" id="user"></path>
            </g>
        </g>
    </g>
</svg>