<?xml version="1.0" encoding="UTF-8"?>
<svg width="20px" height="20px" viewBox="0 0 20 20" version="1.1" xmlns="http://www.w3.org/2000/svg" xmlns:xlink="http://www.w3.org/1999/xlink">
    <title>登录_usre_password_icon</title>
    <g id="页面-1" stroke="none" stroke-width="1" fill="none" fill-rule="evenodd">
        <g id="切图" transform="translate(-1497.000000, -656.000000)" fill="#AEB4BF">
            <g id="usre_password_icon备份-3" transform="translate(1500.000000, 656.847572)">
                <path d="M12.203229,6.10162728 L11.3315789,6.10162728 L11.3315789,4.35832709 C11.3315789,1.95247272 9.37900407,5.68434189e-14 6.97325184,5.68434189e-14 C4.56749962,5.68434189e-14 2.61492475,1.95247272 2.61492475,4.35832709 L2.61492475,6.10162728 L1.74330019,6.10162728 C0.784467211,6.10162728 0,6.88606896 0,7.84490194 L0,16.5615561 C0,17.520287 0.784467211,18.3048563 1.74330019,18.3048563 L12.203229,18.3048563 C13.162062,18.3048563 13.9465292,17.520287 13.9465292,16.5615561 L13.9465292,7.84490194 C13.9465292,6.88606896 13.162062,6.10162728 12.203229,6.10162728 Z M6.97325184,13.9465292 C6.0144444,13.9465292 5.22997719,13.162062 5.22997719,12.203229 C5.22997719,11.244396 6.0144444,10.4599544 6.97325184,10.4599544 C7.93208482,10.4599544 8.71655204,11.244396 8.71655204,12.203229 C8.71655204,13.162062 7.93208482,13.9465292 6.97325184,13.9465292 Z M9.67538502,6.10162728 L4.27114421,6.10162728 L4.27114421,4.35832709 C4.27114421,2.86771426 5.48274116,1.65611731 6.97325184,1.65611731 C8.46378806,1.65611731 9.67538502,2.86771426 9.67538502,4.35832709 L9.67538502,6.10162728 Z" id="mima"></path>
            </g>
        </g>
    </g>
</svg>