<?xml version="1.0" encoding="UTF-8"?>
<svg width="20px" height="20px" viewBox="0 0 20 20" version="1.1" xmlns="http://www.w3.org/2000/svg" xmlns:xlink="http://www.w3.org/1999/xlink">
    <title>登录_usre_password_icon</title>
    <g id="页面-1" stroke="none" stroke-width="1" fill="none" fill-rule="evenodd">
        <g id="切图" transform="translate(-1551.000000, -656.000000)">
            <g id="编组-2备份-2" transform="translate(1551.000000, 656.000000)">
                <g id="usre_password_icon备份"></g>
                <g id="yanzhengma" transform="translate(1.094784, 0.599761)" fill="#AEB4BF" fill-rule="nonzero">
                    <path d="M17.0585064,4.0290676 C17.0397286,3.44660303 16.5509711,2.89631499 15.9727251,2.79683538 C15.9727251,2.79683538 13.7309219,2.44723442 12.4729784,2.00569754 C10.9024344,1.4544402 9.34821142,0.242668619 9.34821142,0.242668619 C8.86344871,-0.0987565022 8.11989805,-0.0775794356 7.67029837,0.291512878 C7.67029837,0.291512878 6.57003313,1.38656819 4.51707625,2.0257789 C2.62043037,2.7775969 1.1045535,2.8545719 1.1045535,2.8545719 C0.532502736,2.92811222 0.0400494293,3.44900521 0.0289621787,4.03134334 C0.0289621787,4.03134334 -0.0480717668,7.02512945 0.0491285802,9.65260475 C0.0858510791,14.353074 5.72733812,19 8.57812828,19 C11.3842277,19 16.233628,15.7624562 16.9964264,9.72094035 C17.184931,6.13409057 17.0585064,4.0290676 17.0585064,4.0290676 Z M12.681329,8.15265629 L7.83096735,12.9952543 C7.62430445,13.2015465 7.27365685,13.2253575 7.03601802,13.0389992 L4.5031264,11.0536425 C4.03780374,10.6889332 3.98926767,10.0541475 4.40103399,9.6293205 C4.80993771,9.20740139 5.51213015,9.15160347 5.98683102,9.5180618 L7.16263483,10.4258106 L11.2034991,6.67072416 C11.6244087,6.27956977 12.2935743,6.29063243 12.7044434,6.67742496 C12.6985687,6.67137738 12.6969451,6.66313833 12.6908781,6.65715396 L12.7251225,6.69099515 C12.7190555,6.68501078 12.7105745,6.68321968 12.7044434,6.67742496 C13.0995682,7.08701712 13.094078,7.74057768 12.681329,8.15265629 Z" id="形状"></path>
                </g>
            </g>
        </g>
    </g>
</svg>