<?xml version="1.0" encoding="UTF-8"?>
<svg width="28px" height="28px" viewBox="0 0 28 28" version="1.1" xmlns="http://www.w3.org/2000/svg" xmlns:xlink="http://www.w3.org/1999/xlink">
    <title>首页_全屏</title>
    <defs>
        <linearGradient x1="50%" y1="0%" x2="50%" y2="100%" id="linearGradient-1">
            <stop stop-color="#F2F2F2" offset="0%"></stop>
            <stop stop-color="#95A2BD" offset="100%"></stop>
        </linearGradient>
    </defs>
    <g id="切图" stroke="none" stroke-width="1" fill="none" fill-rule="evenodd">
        <g id="设备管理切图" transform="translate(-1742.000000, -18.000000)">
            <polygon id="Rectangle-3-Copy-2" fill="#222A39" opacity="0" points="1734 10 1778 10 1778 54 1734 54"></polygon>
            <g id="Group-14" transform="translate(1743.000000, 19.000000)">
                <path d="M7.001,0 L5.001,2 L2,2 L2,5.001 L0,7.001 L1.77635684e-15,1.77635684e-15 L7.001,0 Z" id="Combined-Shape" fill="#DBDEE5" fill-rule="nonzero"></path>
                <path d="M26.001,0 L24.001,2 L21,2 L21,5.001 L19,7.001 L19,1.77635684e-15 L26.001,0 Z" id="Combined-Shape" fill="#DBDEE5" fill-rule="nonzero" transform="translate(22.500277, 3.500277) scale(-1, 1) translate(-22.500277, -3.500277) "></path>
                <path d="M7.001,19 L5.001,21 L2,21 L2,24.001 L0,26.001 L1.77635684e-15,19 L7.001,19 Z" id="Combined-Shape" fill="#A4AEC6" fill-rule="nonzero" transform="translate(3.500277, 22.500277) scale(1, -1) translate(-3.500277, -22.500277) "></path>
                <path d="M26.001,19 L24.001,21 L21,21 L21,24.001 L19,26.001 L19,19 L26.001,19 Z" id="Combined-Shape" fill="#A4AEC6" fill-rule="nonzero" transform="translate(22.500277, 22.500277) scale(-1, -1) translate(-22.500277, -22.500277) "></path>
                <path d="M7.13785577,7.58333333 L7.72804261,7.58333333 C9.1581107,9.14106754 10.803824,10.3565723 12.6651825,11.2534495 L12.2565916,12.0087146 C10.3725336,11.0646333 8.77221931,9.84912854 7.43294919,8.35039942 C6.19582679,9.77832244 4.57281299,11.0174292 2.56390781,12.0677197 L2.16666667,11.3242556 C4.16422211,10.3211692 5.82128514,9.07026144 7.13785577,7.58333333 Z M4.26636983,11.3124546 L10.5995285,11.3124546 L10.5995285,12.1267248 L7.85288982,12.1267248 L7.85288982,14.1801017 L11.1329666,14.1801017 L11.1329666,14.9943718 L7.85288982,14.9943718 L7.85288982,17.1775599 L12.1657936,17.1775599 L12.1657936,18.0154321 L2.71145451,18.0154321 L2.71145451,17.1775599 L7.01300856,17.1775599 L7.01300856,14.9943718 L3.72158198,14.9943718 L3.72158198,14.1801017 L7.01300856,14.1801017 L7.01300856,12.1267248 L4.26636983,12.1267248 L4.26636983,11.3124546 Z M20.9618474,13.2714234 L18.8621442,13.2714234 L18.8621442,13.8968773 C18.8507945,14.2391068 18.828095,14.5577342 18.7940457,14.8527596 L20.9618474,14.8527596 L20.9618474,13.2714234 Z M20.9618474,15.6316267 L18.6691985,15.6316267 C18.5557011,16.0800654 18.4195041,16.4812999 18.2379082,16.8235294 C17.8520168,17.5079884 17.2277807,18.0390341 16.3538502,18.4166667 L15.8998603,17.6732026 C16.7056923,17.3191721 17.2618299,16.8589325 17.5796228,16.2688816 C17.6704208,16.0682643 17.749869,15.855846 17.8179675,15.6316267 L15.8090623,15.6316267 L15.8090623,14.8527596 L17.9882137,14.8527596 C18.022263,14.5459332 18.0449625,14.2273057 18.0563122,13.8968773 L18.0563122,13.2714234 L16.2176532,13.2714234 L16.2176532,12.4925563 L18.0563122,12.4925563 C17.840667,12.1149237 17.6250218,11.7608932 17.4093766,11.4540668 L18.1017112,11.1118373 C18.3741051,11.5366739 18.646499,11.9969136 18.8961935,12.4925563 L20.666754,12.4925563 C20.9958966,12.0441176 21.29099,11.560276 21.5406845,11.0410312 L22.323817,11.3242556 C22.0854723,11.7490922 21.8244281,12.1385258 21.5406845,12.4925563 L23.3906932,12.4925563 L23.3906932,13.2714234 L21.7449799,13.2714234 L21.7449799,14.8527596 L23.8333333,14.8527596 L23.8333333,15.6316267 L21.7449799,15.6316267 L21.7449799,18.2750545 L20.9618474,18.2750545 L20.9618474,15.6316267 Z M22.4486642,8.763435 L15.5820674,8.763435 L15.5820674,9.97893972 L22.4486642,9.97893972 L22.4486642,8.763435 Z M15.5820674,10.7814089 L15.5820674,11.8907044 C15.5707177,14.39252 15.1621268,16.552106 14.344945,18.3458606 L13.6412607,17.7086057 C14.390344,16.1980755 14.7648856,14.2627088 14.7762354,11.8907044 L14.7762354,7.96096587 L23.2431465,7.96096587 L23.2431465,10.7814089 L15.5820674,10.7814089 Z" id="全屏" fill="url(#linearGradient-1)"></path>
            </g>
        </g>
    </g>
</svg>