<?xml version="1.0" encoding="UTF-8"?>
<svg width="36px" height="34px" viewBox="0 0 36 34" version="1.1" xmlns="http://www.w3.org/2000/svg" xmlns:xlink="http://www.w3.org/1999/xlink">
    <title>编组 7</title>
    <g id="页面-3" stroke="none" stroke-width="1" fill="none" fill-rule="evenodd">
        <g id="切图" transform="translate(-1104.000000, -859.000000)">
            <rect id="矩形" fill="#D8D8D8" opacity="0" x="0" y="802" width="1920" height="760"></rect>
            <g id="编组-7" transform="translate(1104.000000, 859.000000)" fill-rule="nonzero">
                <g id="编组-16">
                    <g id="编组-12备份-3" transform="translate(13.234909, 15.726872)" fill="#FFFFFF">
                        <polygon id="路径" points="0 0 7.06857956 0 3.50922389 6.09104258"></polygon>
                    </g>
                    <g id="编组-13">
                        <path d="M28.0109895,3.54478708 C25.091116,1.34801762 21.4289018,0 17.5192408,0 C13.6095797,0 9.9968549,1.29809104 7.07698144,3.4948605 L17.5687301,21.8179148 L28.0109895,3.54478708 Z" id="路径" fill="#F05C32"></path>
                        <path d="M14.0549841,15.7268722 L24.4972434,33.9500734 C30.7329054,31.2540382 35.0879709,24.9632893 35.0879709,17.7239354 C35.0879709,17.0249633 35.0384815,16.3759178 34.9889921,15.7268722 L14.0549841,15.7268722 Z" id="路径" fill="#5251E5"></path>
                        <path d="M21.0329868,15.7268722 L0.0989787613,15.7268722 C0.0494893807,16.3759178 0,17.0748899 0,17.7239354 C0,25.0132159 4.3550655,31.2540382 10.5907275,34 L21.0329868,15.7268722 Z" id="路径" fill="#89BA3F"></path>
                        <polygon id="路径" fill="#FFFFFF" points="14.0549841 15.7268722 21.0329868 15.7268722 17.5192408 21.8179148"></polygon>
                    </g>
                </g>
            </g>
        </g>
    </g>
</svg>