<svg id="_" data-name="ͼ" xmlns="http://www.w3.org/2000/svg" xmlns:xlink="http://www.w3.org/1999/xlink" viewBox="0 0 401.54 165.06"><defs><style>.cls-1,.cls-2,.cls-3,.cls-4,.cls-5,.cls-6,.cls-7{fill-rule:evenodd;}.cls-1{fill:url(#GradientFill_1);}.cls-2{fill:url(#GradientFill_2);}.cls-3{fill:url(#GradientFill_1-2);}.cls-4{fill:url(#GradientFill_1-3);}.cls-5{fill:url(#GradientFill_2-2);}.cls-6{fill:url(#GradientFill_2-3);}.cls-7{fill:#105aa9;}</style><linearGradient id="GradientFill_1" x1="47.53" y1="122.25" x2="157.3" y2="26.18" gradientUnits="userSpaceOnUse"><stop offset="0" stop-color="#003d96"/><stop offset="1" stop-color="#7dcce5"/></linearGradient><linearGradient id="GradientFill_2" x1="150.66" y1="62.84" x2="-26.71" y2="74.61" gradientUnits="userSpaceOnUse"><stop offset="0" stop-color="#9fd2ac"/><stop offset="1" stop-color="#75cae8"/></linearGradient><linearGradient id="GradientFill_1-2" x1="-33.18" y1="94.81" x2="108.97" y2="63.81" xlink:href="#GradientFill_1"/><linearGradient id="GradientFill_1-3" x1="7.71" y1="143.52" x2="110.69" y2="108.34" xlink:href="#GradientFill_1"/><linearGradient id="GradientFill_2-2" x1="128.75" y1="102.96" x2="4.17" y2="122.95" xlink:href="#GradientFill_2"/><linearGradient id="GradientFill_2-3" x1="148.56" y1="-19.43" x2="82.41" y2="52.42" xlink:href="#GradientFill_2"/></defs><path class="cls-1" d="M95.66,62.18c10.62-17.58,15.91-41.58,12.48-50.9-4.24-11.54,5-16.65,11.91-3.49,15.19,28.81,10.38,83.27,8.07,102.53-1.14,9.48-3.33,21.23-16.65,6.48-8.34-9.24-19-19.43-23.85-28.52C80.89,75.58,89.39,72.55,95.66,62.18Z"/><path class="cls-2" d="M2.56,14.73S60.19,4.47,103.4,75.28c0,0,22.44,36.63,19.78,47.46,0,0-.06-9.91-11.4-26.4,0,0-45.2-77-111.38-69.94A46.87,46.87,0,0,1,2.56,14.73Z"/><path class="cls-3" d="M.53,26.38c0,.11-7.13,35.88,31.55,73.23h0c24.08-7.72,61.74,5.92,61.74,5.92,23.83,7,28.43,13.26,29.15,16.23l.13,0c-.32-2.83-2-11.93-11.33-25.46C111.78,96.34,66.64,19.44.53,26.38Z"/><path class="cls-4" d="M123,123.56s3.88-8.4-29.13-18c0,0-43.42-15.73-66.82-3.86,0,0-26.91,13.73-2.46,44,0,0,20.1,23.61,51.37,10,0,0,24-11.1,38.54-22C114.46,133.66,122.63,128.47,123,123.56Z"/><path class="cls-5" d="M123.05,123.24s.47-10.51-35.53-13.94c0,0-40.4-6.89-61,4.34a23,23,0,0,0-11.36,14.68S9.12,107.8,32.09,99.61c24.08-7.72,61.74,5.92,61.74,5.92,21.54,6.28,27.37,12,28.82,15.28Z"/><path class="cls-6" d="M110.25.15s-5.88-.1-10.2,9.24a21.53,21.53,0,0,0-1.52,6.26c-1.19,12-1.17,25.5-9.17,39.87Q92.29,59,95.17,63c.17-.26.33-.52.49-.79,10.62-17.58,15.91-41.58,12.48-50.9-2.21-6-.77-10.28,2.11-11.13ZM88.1,65.87h0l1.27,1.35L88.1,65.87Zm2.74,2.94h0l-1.22-1.33Z"/><path class="cls-7" d="M140.05,118.57l1.07-.29a77.68,77.68,0,0,0,11.9-4.37c7-3.26,16.42-9.07,21.53-18.19,0,0,.78-1,1.31-.54A.72.72,0,0,1,176,96a1.18,1.18,0,0,1-.68.88,3.17,3.17,0,0,1-1,.22,35.18,35.18,0,0,1-9.19,10.06,60.73,60.73,0,0,1-11.91,7.2,78.24,78.24,0,0,1-11.79,4.35l-1.3.35a3.6,3.6,0,0,1-1.36,3.89,5,5,0,0,1-3.83.75c-2.85,3.91-4.52,6-7.62,8.5-2.06,1.69-4.19,3.69-6.87,4.15-.11.09-1.13.92-2.73,2a8.2,8.2,0,0,1-3.82,1.64L82.78,162.62a30,30,0,0,1-4.21,2.11,4.79,4.79,0,0,1-1.24.33,3.6,3.6,0,0,1-1.63-.31,2.55,2.55,0,0,1-1.6-2.69,9,9,0,0,1,1.7-2.87,16,16,0,0,1,1.65-1.9l31.17-22.68a6.49,6.49,0,0,1,2.11-3.27c1.46-1.33,2.32-2,2.32-2a7.56,7.56,0,0,0,.51-.86,11.74,11.74,0,0,1,1.11-2c.19-.27.39-.55.61-.82l.19-.24a16.31,16.31,0,0,1,1.69-1.76q.51-.47,1.08-.9c.15-.12.3-.24.46-.35a19.05,19.05,0,0,1,6.7-3.14,12.75,12.75,0,0,1,4.53-.31,3.53,3.53,0,0,1,1.44-3.44,5.56,5.56,0,0,1,5.78-.08,86.88,86.88,0,0,0,5.15-8.59c.41-.79.83-1.6,1.24-2.46,3.07-6.31,6.64-15.7,6.18-24.59-.18-1,.2-1.26.32-1.31.35-.11.65.21.75.35A1.13,1.13,0,0,1,151,80a1.79,1.79,0,0,1-.68.78c.18,8.7-3.27,17.67-6.25,23.8-.64,1.32-1.29,2.55-1.91,3.7a85.41,85.41,0,0,1-4.54,7.43,6.35,6.35,0,0,1,1.12.89,5.45,5.45,0,0,1,1,1.38,3.55,3.55,0,0,1,.21.44l.08.2ZM116,133.44a3.36,3.36,0,0,0,3,1,3.44,3.44,0,0,1-3-1Zm3.38,3a3.92,3.92,0,0,0,1.14-.09A7.11,7.11,0,0,1,119.36,136.42Z"/><path class="cls-7" d="M210.45,115.62v-3.56a.81.81,0,0,0-.29-.65.86.86,0,0,0-.67-.2l-23.81,3.29a.86.86,0,0,1-.67-.2.82.82,0,0,1-.3-.65V108a.85.85,0,0,1,.73-.84l2-.29a.85.85,0,0,0,.72-.85V72.45a.85.85,0,0,0-.85-.85h-1.7a.86.86,0,0,1-.86-.85V65a.86.86,0,0,1,.86-.85h24.25a.85.85,0,0,0,.85-.85v-4a.87.87,0,0,0-.86-.86H187.93a.85.85,0,0,1-.85-.85V51.87a.85.85,0,0,1,.85-.85h26a3.71,3.71,0,0,1,3.89,4.33.92.92,0,0,0,0,.16l.05,8.63s0,30,0,37.32a.84.84,0,0,0,.29.64.85.85,0,0,0,.68.2l1.39-.21a.85.85,0,0,1,.68.2.84.84,0,0,1,.29.65v5.94a.84.84,0,0,1-.73.84l-1.87.26a.84.84,0,0,0-.73.84v4.8a.86.86,0,0,1-.85.85h-5.68a.86.86,0,0,1-.86-.85Zm39.4-50.69h1.36a.86.86,0,0,0,.85-.85V58.32a.85.85,0,0,0-.85-.85c-6.78,0-13.71.07-20.4.07a.82.82,0,0,1-.65-.3.81.81,0,0,1-.18-.7l.81-4.52a.84.84,0,0,0-.19-.7A.82.82,0,0,0,230,51h-6a.86.86,0,0,0-.84.7c-.5,2.8-1.16,6.68-1.44,8.58-.34,2.31,1,4.63,3.57,4.63h15.4a.85.85,0,0,1,.66.31.8.8,0,0,1,.17.71c-.42,2-.84,3.9-1.28,5.69-.79,3.24-1.7,6.47-2.74,9.64a.85.85,0,0,1-.75.59.84.84,0,0,1-.82-.47l-6.2-12.13a.84.84,0,0,0-.77-.47l-6.47.1a.85.85,0,0,0-.75,1.24L233,92.05a.83.83,0,0,1,0,.75c-3.11,6.72-10.38,19-14.73,23.51l0,0-.09.11h9.07a.84.84,0,0,0,.7-.36c2.46-3.51,6.05-9.52,7.68-12.34q.49-.87,1-1.77a.85.85,0,0,1,1.5,0c2,3.88,5.26,10.15,7.22,14a.83.83,0,0,0,.76.46h6.33a.85.85,0,0,0,.75-1.24L241.55,92.44a.82.82,0,0,1,0-.7c.55-1.42,1.12-2.92,1.71-4.56a131.57,131.57,0,0,0,4.09-14c.59-2.46,1.16-5,1.69-7.6a.85.85,0,0,1,.84-.68Zm57.26,20.82h-5.75a.86.86,0,0,0-.85.86V98.72a.85.85,0,0,0,.85.85h5.75a.85.85,0,0,0,.85-.85V86.61a.86.86,0,0,0-.85-.86ZM196.43,91.48H209.6a.85.85,0,0,0,.85-.85V86.08a.85.85,0,0,0-.85-.85H196.43a.85.85,0,0,0-.85.85v4.55a.85.85,0,0,0,.85.85Zm0-13.7H209.6a.86.86,0,0,0,.85-.86V72.45a.85.85,0,0,0-.85-.85H196.43a.85.85,0,0,0-.85.85v4.47a.86.86,0,0,0,.85.86Zm.12,27.73,13.17-1.87a.83.83,0,0,0,.73-.84v-3a.86.86,0,0,0-.85-.85H196.43a.86.86,0,0,0-.85.85v4.89a.85.85,0,0,0,1,.84Zm119.72,3.59a3.08,3.08,0,0,0,3-2.95V78.24a3.16,3.16,0,0,0-3-2.87h-20.8a.84.84,0,0,0-.8.55c-5.74,15-13.67,27.47-23.39,40.25a.86.86,0,0,1-.68.33h-7.2a.85.85,0,0,1-.68-1.37c9.45-12.19,17.84-24.29,23.75-38.58a.84.84,0,0,0-.08-.8.83.83,0,0,0-.71-.38H264.12a.85.85,0,0,1-.85-.85V68.91a.85.85,0,0,1,.85-.85H289a.85.85,0,0,0,.81-.57l0-.12a.08.08,0,0,0,0,0c1.46-4.61,3.26-10.29,4.32-15a.85.85,0,0,1,.83-.66h5.78a.84.84,0,0,1,.83,1c-.61,2.85-2.09,7.83-2.71,10.13-.36,1.36-.76,2.74-1.17,4.13a.86.86,0,0,0,.13.76.84.84,0,0,0,.68.34h17.74a10.16,10.16,0,0,1,10.26,10.18v27.91a10.25,10.25,0,0,1-10.26,10.33H297.39a.85.85,0,0,1-.85-.85V110a.85.85,0,0,1,.85-.85ZM278.09,52.43a.85.85,0,0,0-.85-.85h-5.68a.85.85,0,0,0-.85.85v9.2a.86.86,0,0,0,.85.86h5.68a.86.86,0,0,0,.85-.86v-9.2ZM400.69,81H358.75a.85.85,0,0,0-.83.65l-6.57,26.73a.82.82,0,0,0,.15.73.82.82,0,0,0,.67.33h38.57a3.05,3.05,0,0,0,2.87-3V95.69a.86.86,0,0,1,.85-.86h5.68a.86.86,0,0,1,.85.86v10.75a10.32,10.32,0,0,1-10.25,10.33h-44a3.68,3.68,0,0,1-3.55-4.52v0L350.39,82a.86.86,0,0,0-.83-1h-7.27a.86.86,0,0,1-.86-.85V74.35a.86.86,0,0,1,.86-.85h58.4a.85.85,0,0,1,.85.85V80.1a.85.85,0,0,1-.85.85Zm0-20h-58.4a.86.86,0,0,1-.86-.85V54.34a.87.87,0,0,1,.86-.86h58.4a.86.86,0,0,1,.85.86v5.75A.85.85,0,0,1,400.69,60.94Z"/><path class="cls-7" d="M193.31,147.69a9,9,0,0,1-7.06-3,9.62,9.62,0,0,1-2.41-6.59,9.12,9.12,0,0,1,2.3-6.33,9.23,9.23,0,0,1,7.17-2.87H203.9v3.27H193.31a6,6,0,0,0-4.58,1.85,6.47,6.47,0,0,0-.18,8.43,6,6,0,0,0,4.76,2H202v-4.1h-8.91v-3h12.18v10.38Zm33.44-5.28h-8.92l2-3.27h5l-3.27-5.41L213,147.67h-4.21l10.2-17a4.31,4.31,0,0,1,1.28-1.34,2.41,2.41,0,0,1,1.21-.49,2,2,0,0,1,1.28.39,4.38,4.38,0,0,1,1.36,1.44l10,17h-4.22l-3.18-5.26ZM253,146.75l-12.06-12.12v13.06h-3.27V130.54a1.73,1.73,0,0,1,.4-1.21,1.31,1.31,0,0,1,1-.44,2.63,2.63,0,0,1,1.85,1L253,141.94V128.89h3.27v17.18c0,1.2-.41,1.81-1.23,1.81a3.12,3.12,0,0,1-2-1.13Zm24.41-5.42-2.69,4.83c-.67,1.18-1.33,1.79-2,1.85s-1.39-.57-2.1-1.86l-9.46-17.26h4.23l7.33,13.69,2.64-4.93-4.79-8.76h4.21l7.35,13.7,7.44-13.7h4.2l-9.68,17.26c-.66,1.18-1.31,1.8-2,1.86s-1.4-.57-2.1-1.86l-2.64-4.82Zm35.33-4.81v3.27H302v-3.27Zm-12.13,7.9V132.16h13v-3.27H297.31v18.8h16.24v-3.27Zm18.87,3.27v-18.8h3.27v18.8Zm20.65,0h-3.27v-6.27l-9.57-12.53h4.21l7.09,9.28,6.65-9.28h4.2l-9.31,12.58v6.22Zm24.7,0h-1.12q-4.76,0-7.17-1.85c-1.78-1.38-2.66-3.59-2.66-6.62V128.89h3.27v10.33q0,3,1.83,4.21a8.82,8.82,0,0,0,4.73,1h1.12a8.86,8.86,0,0,0,4.74-1q1.83-1.23,1.83-4.21V128.89h3.27v10.33q0,4.54-2.7,6.62-2.37,1.84-7.14,1.85Zm31-.94-12.06-12.12v13.06h-3.27V130.54a1.78,1.78,0,0,1,.39-1.21,1.34,1.34,0,0,1,1-.44,2.66,2.66,0,0,1,1.86,1l12.06,12.08V128.89h3.27v17.18c0,1.2-.41,1.81-1.23,1.81A3.12,3.12,0,0,1,395.84,146.75Z"/></svg>